<svg width="51" height="56" viewBox="0 0 51 56" fill="none" xmlns="http://www.w3.org/2000/svg">
<g id="Notification Bing" filter="url(#filter0_d_178_132)">
<path id="icon" d="M26.25 13.685C26.25 13.2708 25.9142 12.935 25.5 12.935C25.0858 12.935 24.75 13.2708 24.75 13.685H26.25ZM24.75 20.7613C24.75 21.1755 25.0858 21.5113 25.5 21.5113C25.9142 21.5113 26.25 21.1755 26.25 20.7613H24.75ZM10.0513 27.71L9.40913 27.3225L9.40789 27.3246L10.0513 27.71ZM7.35253 32.215L6.70914 31.8296L6.70811 31.8313L7.35253 32.215ZM9.90253 39.1213L9.66536 39.8328L9.6658 39.8329L9.90253 39.1213ZM41.2038 39.1213L41.4405 39.8329L41.4409 39.8328L41.2038 39.1213ZM43.7538 32.215L44.3974 31.8299L44.3972 31.8296L43.7538 32.215ZM41.055 27.71L41.6984 27.3246L41.6972 27.3225L41.055 27.71ZM39.7163 18.4025L40.4663 18.4025L40.4663 18.4005L39.7163 18.4025ZM24.75 13.685V20.7613H26.25V13.685H24.75ZM25.5425 3.5C17.3083 3.5 10.64 10.1683 10.64 18.4025H12.14C12.14 10.9967 18.1367 5 25.5425 5V3.5ZM10.64 18.4025V22.865H12.14V18.4025H10.64ZM10.64 22.865C10.64 23.4993 10.5069 24.3325 10.2765 25.1678C10.0461 26.0036 9.73418 26.7838 9.40914 27.3225L10.6934 28.0975C11.1121 27.4037 11.4696 26.4839 11.7226 25.5666C11.9757 24.6488 12.14 23.6757 12.14 22.865H10.64ZM9.40789 27.3246L6.70914 31.8296L7.99591 32.6004L10.6947 28.0954L9.40789 27.3246ZM6.70811 31.8313C5.77461 33.3991 5.60703 35.1063 6.15494 36.5894C6.70296 38.0729 7.93925 39.2574 9.66536 39.8328L10.1397 38.4097C8.80581 37.9651 7.93834 37.0884 7.56199 36.0696C7.18553 35.0506 7.27295 33.8146 7.99695 32.5987L6.70811 31.8313ZM9.6658 39.8329C19.977 43.2628 31.1293 43.2628 41.4405 39.8329L40.967 38.4096C30.9632 41.7372 20.1431 41.7372 10.1393 38.4096L9.6658 39.8329ZM41.4409 39.8328C44.7673 38.724 46.1933 34.8313 44.3974 31.8299L43.1102 32.6001C44.4168 34.7837 43.3777 37.606 40.9666 38.4097L41.4409 39.8328ZM44.3972 31.8296L41.6984 27.3246L40.4116 28.0954L43.1104 32.6004L44.3972 31.8296ZM41.6972 27.3225C41.3727 26.7848 41.0607 25.9998 40.8299 25.1604C40.5992 24.3214 40.4663 23.4883 40.4663 22.865H38.9663C38.9663 23.6655 39.1308 24.6386 39.3836 25.558C39.6362 26.4771 39.9936 27.4027 40.4129 28.0975L41.6972 27.3225ZM40.4663 22.865V18.4025H38.9663V22.865H40.4663ZM40.4663 18.4005C40.4439 10.2107 33.7346 3.5 25.5425 3.5V5C32.9054 5 38.9462 11.0393 38.9663 18.4045L40.4663 18.4005ZM31.8263 39.9925C31.8263 43.467 28.9746 46.3187 25.5 46.3187V47.8187C29.803 47.8187 33.3263 44.2955 33.3263 39.9925H31.8263ZM25.5 46.3187C23.7762 46.3187 22.1789 45.5982 21.0366 44.4559L19.9759 45.5166C21.3836 46.9243 23.3564 47.8187 25.5 47.8187V46.3187ZM21.0366 44.4559C19.8943 43.3136 19.1738 41.7163 19.1738 39.9925H17.6738C17.6738 42.1362 18.5683 44.1089 19.9759 45.5166L21.0366 44.4559Z" fill="black"/>
</g>
<defs>
<filter id="filter0_d_178_132" x="-4" y="0" width="59" height="59" filterUnits="userSpaceOnUse" color-interpolation-filters="sRGB">
<feFlood flood-opacity="0" result="BackgroundImageFix"/>
<feColorMatrix in="SourceAlpha" type="matrix" values="0 0 0 0 0 0 0 0 0 0 0 0 0 0 0 0 0 0 127 0" result="hardAlpha"/>
<feOffset dy="4"/>
<feGaussianBlur stdDeviation="2"/>
<feComposite in2="hardAlpha" operator="out"/>
<feColorMatrix type="matrix" values="0 0 0 0 0 0 0 0 0 0 0 0 0 0 0 0 0 0 0.25 0"/>
<feBlend mode="normal" in2="BackgroundImageFix" result="effect1_dropShadow_178_132"/>
<feBlend mode="normal" in="SourceGraphic" in2="effect1_dropShadow_178_132" result="shape"/>
</filter>
</defs>
</svg>
